<?xml version="1.0" encoding="UTF-8" standalone="no"?>
<!-- Created with Inkscape (http://www.inkscape.org/) -->

<svg
   xmlns:dc="http://purl.org/dc/elements/1.1/"
   xmlns:cc="http://creativecommons.org/ns#"
   xmlns:rdf="http://www.w3.org/1999/02/22-rdf-syntax-ns#"
   xmlns:svg="http://www.w3.org/2000/svg"
   xmlns="http://www.w3.org/2000/svg"
   xmlns:xlink="http://www.w3.org/1999/xlink"
   xmlns:sodipodi="http://sodipodi.sourceforge.net/DTD/sodipodi-0.dtd"
   xmlns:inkscape="http://www.inkscape.org/namespaces/inkscape"
   width="48"
   height="48"
   viewBox="0 0 48 48.000001"
   id="svg2"
   version="1.1"
   inkscape:version="0.91 r13725"
   sodipodi:docname="lander.svg"
   inkscape:export-filename="/home/mauve/dev/wasabi2d/examples/lander/images/lander-thrust.png"
   inkscape:export-xdpi="90"
   inkscape:export-ydpi="90">
  <defs
     id="defs4">
    <mask
       maskUnits="userSpaceOnUse"
       id="mask4308">
      <use
         transform="translate(0,-1004.3622)"
         x="0"
         y="0"
         xlink:href="#g4208"
         id="use4310"
         width="100%"
         height="100%" />
    </mask>
  </defs>
  <sodipodi:namedview
     id="base"
     pagecolor="#151515"
     bordercolor="#666666"
     borderopacity="1.0"
     inkscape:pageopacity="0"
     inkscape:pageshadow="2"
     inkscape:zoom="24.404958"
     inkscape:cx="40.234136"
     inkscape:cy="22.715985"
     inkscape:document-units="px"
     inkscape:current-layer="layer2"
     showgrid="false"
     units="px"
     inkscape:window-width="3070"
     inkscape:window-height="1752"
     inkscape:window-x="130"
     inkscape:window-y="48"
     inkscape:window-maximized="1" />
  <metadata
     id="metadata7">
    <rdf:RDF>
      <cc:Work
         rdf:about="">
        <dc:format>image/svg+xml</dc:format>
        <dc:type
           rdf:resource="http://purl.org/dc/dcmitype/StillImage" />
        <dc:title></dc:title>
      </cc:Work>
    </rdf:RDF>
  </metadata>
  <g
     inkscape:label="Layer 1"
     inkscape:groupmode="layer"
     id="layer1"
     transform="translate(0,-1004.3622)">
    <g
       id="g4208"
       transform="matrix(1.5033743,0,0,1.5033743,-0.06179056,-529.69137)">
      <path
         sodipodi:nodetypes="zcsssscz"
         inkscape:connector-curvature="0"
         id="rect4172"
         d="m 16.244276,1023.4745 c 5.803991,0 10.733329,3.1965 10.843157,6.8332 l 0,4.5419 c 0,2.4028 -1.934417,4.3372 -4.337258,4.3372 l -13.0117984,0 c -2.4028406,0 -4.3372574,-1.9344 -4.3372574,-4.3372 l 0,-3.6417 c 0,-3.7921 5.0391658,-7.7334 10.8431568,-7.7334 z"
         style="color:#000000;clip-rule:nonzero;display:inline;overflow:visible;visibility:visible;opacity:1;isolation:auto;mix-blend-mode:normal;color-interpolation:sRGB;color-interpolation-filters:linearRGB;solid-color:#000000;solid-opacity:1;fill:#151922;fill-opacity:1;fill-rule:evenodd;stroke:none;stroke-width:1px;stroke-linecap:butt;stroke-linejoin:miter;stroke-miterlimit:4;stroke-dasharray:none;stroke-dashoffset:0;stroke-opacity:1;color-rendering:auto;image-rendering:auto;shape-rendering:auto;text-rendering:auto;enable-background:accumulate" />
      <g
         transform="matrix(1,0,0,0.89308899,0,112.49223)"
         id="g4148">
        <rect
           style="color:#000000;clip-rule:nonzero;display:inline;overflow:visible;visibility:visible;opacity:1;isolation:auto;mix-blend-mode:normal;color-interpolation:sRGB;color-interpolation-filters:linearRGB;solid-color:#000000;solid-opacity:1;fill:#151922;fill-opacity:1;fill-rule:evenodd;stroke:none;stroke-width:1px;stroke-linecap:butt;stroke-linejoin:miter;stroke-miterlimit:4;stroke-dasharray:none;stroke-dashoffset:0;stroke-opacity:1;color-rendering:auto;image-rendering:auto;shape-rendering:auto;text-rendering:auto;enable-background:accumulate"
           id="rect4138"
           width="8.0198441"
           height="3.2734058"
           x="0.12275271"
           y="1049.007"
           rx="0.48990878"
           ry="0.54855537" />
        <path
           style="fill:none;fill-rule:evenodd;stroke:#151922;stroke-width:1.05578816;stroke-linecap:butt;stroke-linejoin:miter;stroke-opacity:1"
           d="m 3.7644165,1049.1297 -2.2504664,-13.7074 6.7104818,-5.2784"
           id="path4142"
           inkscape:connector-curvature="0"
           sodipodi:nodetypes="ccc" />
        <path
           sodipodi:nodetypes="ccc"
           inkscape:connector-curvature="0"
           id="path4146"
           d="m 4.0910036,1049.0267 1.3200362,-9.7277 4.3173098,-2.8049"
           style="fill:none;fill-rule:evenodd;stroke:#151922;stroke-width:1.05578816;stroke-linecap:butt;stroke-linejoin:miter;stroke-opacity:1" />
      </g>
      <use
         height="100%"
         width="100%"
         transform="matrix(-1,0,0,1,32.075711,0)"
         id="use4175"
         xlink:href="#g4148"
         y="0"
         x="0" />
      <circle
         r="2.475513"
         cy="1028.4459"
         cx="16.060148"
         id="path4177"
         style="color:#000000;clip-rule:nonzero;display:inline;overflow:visible;visibility:visible;opacity:1;isolation:auto;mix-blend-mode:normal;color-interpolation:sRGB;color-interpolation-filters:linearRGB;solid-color:#000000;solid-opacity:1;fill:#000000;fill-opacity:1;fill-rule:evenodd;stroke:none;stroke-width:1.5;stroke-linecap:butt;stroke-linejoin:miter;stroke-miterlimit:4;stroke-dasharray:none;stroke-dashoffset:0;stroke-opacity:1;color-rendering:auto;image-rendering:auto;shape-rendering:auto;text-rendering:auto;enable-background:accumulate" />
      <ellipse
         transform="matrix(1,0,0.30646966,0.95188043,0,0)"
         ry="2.6006553"
         rx="1.8196161"
         style="color:#000000;clip-rule:nonzero;display:inline;overflow:visible;visibility:visible;opacity:1;isolation:auto;mix-blend-mode:normal;color-interpolation:sRGB;color-interpolation-filters:linearRGB;solid-color:#000000;solid-opacity:1;fill:#000000;fill-opacity:1;fill-rule:evenodd;stroke:none;stroke-width:1.5;stroke-linecap:butt;stroke-linejoin:miter;stroke-miterlimit:4;stroke-dasharray:none;stroke-dashoffset:0;stroke-opacity:1;color-rendering:auto;image-rendering:auto;shape-rendering:auto;text-rendering:auto;enable-background:accumulate"
         id="circle4179"
         cx="-308.40292"
         cy="1080.608" />
      <ellipse
         cy="1080.608"
         cx="-340.76877"
         id="ellipse4181"
         style="color:#000000;clip-rule:nonzero;display:inline;overflow:visible;visibility:visible;opacity:1;isolation:auto;mix-blend-mode:normal;color-interpolation:sRGB;color-interpolation-filters:linearRGB;solid-color:#000000;solid-opacity:1;fill:#000000;fill-opacity:1;fill-rule:evenodd;stroke:none;stroke-width:1.5;stroke-linecap:butt;stroke-linejoin:miter;stroke-miterlimit:4;stroke-dasharray:none;stroke-dashoffset:0;stroke-opacity:1;color-rendering:auto;image-rendering:auto;shape-rendering:auto;text-rendering:auto;enable-background:accumulate"
         rx="1.8196161"
         ry="2.6006553"
         transform="matrix(-1,0,-0.30646966,0.95188043,0,0)" />
      <path
         sodipodi:nodetypes="ccccc"
         inkscape:connector-curvature="0"
         id="rect4183"
         d="m 12.866096,1039.1868 7.001866,0 1,3.8462 -9.001866,0 z"
         style="color:#000000;clip-rule:nonzero;display:inline;overflow:visible;visibility:visible;opacity:1;isolation:auto;mix-blend-mode:normal;color-interpolation:sRGB;color-interpolation-filters:linearRGB;solid-color:#000000;solid-opacity:1;fill:#151922;fill-opacity:1;fill-rule:evenodd;stroke:none;stroke-width:1px;stroke-linecap:butt;stroke-linejoin:miter;stroke-miterlimit:4;stroke-dasharray:none;stroke-dashoffset:0;stroke-opacity:1;color-rendering:auto;image-rendering:auto;shape-rendering:auto;text-rendering:auto;enable-background:accumulate" />
      <path
         inkscape:connector-curvature="0"
         id="path4186"
         d="m 24.755131,1026.9524 c 0.16367,-1.5139 4.009922,-4.0099 4.009922,-4.0099"
         style="fill:none;fill-rule:evenodd;stroke:#151922;stroke-width:0.66517031px;stroke-linecap:butt;stroke-linejoin:miter;stroke-opacity:1" />
      <circle
         r="0.96156293"
         cy="1022.7174"
         cx="29.276522"
         id="path4188"
         style="color:#000000;clip-rule:nonzero;display:inline;overflow:visible;visibility:visible;opacity:1;isolation:auto;mix-blend-mode:normal;color-interpolation:sRGB;color-interpolation-filters:linearRGB;solid-color:#000000;solid-opacity:1;fill:#1d2129;fill-opacity:1;fill-rule:evenodd;stroke:none;stroke-width:1.5;stroke-linecap:butt;stroke-linejoin:miter;stroke-miterlimit:4;stroke-dasharray:none;stroke-dashoffset:0;stroke-opacity:1;color-rendering:auto;image-rendering:auto;shape-rendering:auto;text-rendering:auto;enable-background:accumulate" />
      <circle
         style="color:#000000;clip-rule:nonzero;display:inline;overflow:visible;visibility:visible;opacity:1;isolation:auto;mix-blend-mode:normal;color-interpolation:sRGB;color-interpolation-filters:linearRGB;solid-color:#000000;solid-opacity:1;fill:#ff0000;fill-opacity:1;fill-rule:evenodd;stroke:none;stroke-width:1.5;stroke-linecap:butt;stroke-linejoin:miter;stroke-miterlimit:4;stroke-dasharray:none;stroke-dashoffset:0;stroke-opacity:1;color-rendering:auto;image-rendering:auto;shape-rendering:auto;text-rendering:auto;enable-background:accumulate"
         id="circle4190"
         cx="9.4314995"
         cy="1035.4019"
         r="0.96156293" />
      <circle
         r="0.96156293"
         cy="1035.4019"
         cx="22.934298"
         id="circle4192"
         style="color:#000000;clip-rule:nonzero;display:inline;overflow:visible;visibility:visible;opacity:1;isolation:auto;mix-blend-mode:normal;color-interpolation:sRGB;color-interpolation-filters:linearRGB;solid-color:#000000;solid-opacity:1;fill:#00ff01;fill-opacity:1;fill-rule:evenodd;stroke:none;stroke-width:1.5;stroke-linecap:butt;stroke-linejoin:miter;stroke-miterlimit:4;stroke-dasharray:none;stroke-dashoffset:0;stroke-opacity:1;color-rendering:auto;image-rendering:auto;shape-rendering:auto;text-rendering:auto;enable-background:accumulate" />
    </g>
  </g>
  <g
     inkscape:groupmode="layer"
     id="layer2"
     inkscape:label="Highlight"
     style="display:inline">
    <g
       transform="translate(0,-1004.3622)"
       id="g4242">
      <path
         style="color:#000000;clip-rule:nonzero;display:inline;overflow:visible;visibility:visible;opacity:1;isolation:auto;mix-blend-mode:normal;color-interpolation:sRGB;color-interpolation-filters:linearRGB;solid-color:#000000;solid-opacity:1;fill:#d8b054;fill-opacity:1;fill-rule:evenodd;stroke:none;stroke-width:1.5;stroke-linecap:butt;stroke-linejoin:miter;stroke-miterlimit:4;stroke-dasharray:none;stroke-dashoffset:0;stroke-opacity:1;color-rendering:auto;image-rendering:auto;shape-rendering:auto;text-rendering:auto;enable-background:accumulate"
         inkscape:transform-center-y="0.15102056"
         d="m 24.543982,1052.2813 c 6.76435,0 10.146548,-13.8452 10.146548,-13.8452 l -20.293098,0 c 0,0 3.382198,13.8452 10.14655,13.8452 z"
         id="path4196"
         inkscape:connector-curvature="0"
         sodipodi:nodetypes="zccz" />
      <path
         sodipodi:nodetypes="zccz"
         inkscape:connector-curvature="0"
         id="path4240"
         d="m 24.543982,1048.0609 c 4.031426,0 6.047152,-9.6608 6.047152,-9.6608 l -12.094306,0 c 0,0 2.015726,9.6608 6.047154,9.6608 z"
         inkscape:transform-center-y="0.10540541"
         style="color:#000000;clip-rule:nonzero;display:inline;overflow:visible;visibility:visible;opacity:1;isolation:auto;mix-blend-mode:normal;color-interpolation:sRGB;color-interpolation-filters:linearRGB;solid-color:#000000;solid-opacity:1;fill:#ffffff;fill-opacity:1;fill-rule:evenodd;stroke:none;stroke-width:1.5;stroke-linecap:butt;stroke-linejoin:miter;stroke-miterlimit:4;stroke-dasharray:none;stroke-dashoffset:0;stroke-opacity:1;color-rendering:auto;image-rendering:auto;shape-rendering:auto;text-rendering:auto;enable-background:accumulate" />
    </g>
    <path
       style="fill:#ffffff;fill-rule:evenodd;stroke:none;stroke-width:1px;stroke-linecap:butt;stroke-linejoin:miter;stroke-opacity:1"
       d="m 10.16187,50.1717 c 1.55706,-3.1141 2.745343,-5.6956 0.491703,-5.6136 -2.2536405,0.082 -2.8682698,-0.2049 -3.3599731,-0.2049 -0.4917034,0 -0.7785303,-1.1883 -0.7785303,-1.1883 L 4.8760583,31.1592 8.0311549,23.5787 c 0,0 -0.8195056,-2.1307 0.286827,-1.5161 1.1063326,0.6147 0.9834067,3.0322 4.6302071,3.5649 3.6468,0.5327 19.422282,0.9424 22.290552,0.1639 2.86827,-0.7785 4.630207,-3.1141 5.203861,-3.1141 0.573654,0 1.802912,16.0623 1.761937,17.0867 -0.04098,1.0244 0.204876,4.5482 -0.163901,4.5482 -0.368778,0 -4.507281,0 -4.876059,0.3278 -0.368777,0.3278 0.204877,4.2615 0.204877,4.2615 z"
       id="path4270"
       inkscape:connector-curvature="0"
       mask="url(#mask4308)" />
    <path
       mask="url(#mask4308)"
       inkscape:connector-curvature="0"
       id="path4312"
       d="m 10.16187,50.1717 c 1.55706,-3.1141 2.745343,-5.6956 0.491703,-5.6136 -2.2536405,0.082 -2.8682698,-0.2049 -3.3599731,-0.2049 -0.4917034,0 -0.7785303,-1.1883 -0.7785303,-1.1883 L 4.8760583,31.1592 8.0311549,23.5787 c 0,0 -0.8195056,-2.1307 0.286827,-1.5161 1.1063326,0.6147 0.9834067,3.0322 4.6302071,3.5649 3.6468,0.5327 19.422282,0.9424 22.290552,0.1639 2.86827,-0.7785 4.630207,-3.1141 5.203861,-3.1141 0.573654,0 1.802912,16.0623 1.761937,17.0867 -0.04098,1.0244 0.204876,4.5482 -0.163901,4.5482 -0.368778,0 -4.507281,0 -4.876059,0.3278 -0.368777,0.3278 0.204877,4.2615 0.204877,4.2615 z"
       style="fill:#ffffff;fill-rule:evenodd;stroke:none;stroke-width:1px;stroke-linecap:butt;stroke-linejoin:miter;stroke-opacity:1" />
    <path
       style="fill:#ffffff;fill-rule:evenodd;stroke:none;stroke-width:1px;stroke-linecap:butt;stroke-linejoin:miter;stroke-opacity:1"
       d="m 10.16187,50.1717 c 1.55706,-3.1141 2.745343,-5.6956 0.491703,-5.6136 -2.2536405,0.082 -2.8682698,-0.2049 -3.3599731,-0.2049 -0.4917034,0 -0.7785303,-1.1883 -0.7785303,-1.1883 L 4.8760583,31.1592 8.0311549,23.5787 c 0,0 -0.8195056,-2.1307 0.286827,-1.5161 1.1063326,0.6147 0.9834067,3.0322 4.6302071,3.5649 3.6468,0.5327 19.422282,0.9424 22.290552,0.1639 2.86827,-0.7785 4.630207,-3.1141 5.203861,-3.1141 0.573654,0 1.802912,16.0623 1.761937,17.0867 -0.04098,1.0244 0.204876,4.5482 -0.163901,4.5482 -0.368778,0 -4.507281,0 -4.876059,0.3278 -0.368777,0.3278 0.204877,4.2615 0.204877,4.2615 z"
       id="path4314"
       inkscape:connector-curvature="0"
       mask="url(#mask4308)" />
    <path
       mask="url(#mask4308)"
       inkscape:connector-curvature="0"
       id="path4352"
       d="m 10.16187,50.1717 c 1.55706,-3.1141 2.745343,-5.6956 0.491703,-5.6136 -2.2536405,0.082 -2.8682698,-0.2049 -3.3599731,-0.2049 -0.4917034,0 -0.7785303,-1.1883 -0.7785303,-1.1883 L 4.8760583,31.1592 8.0311549,23.5787 c 0,0 -0.8195056,-2.1307 0.286827,-1.5161 1.1063326,0.6147 0.9834067,3.0322 4.6302071,3.5649 3.6468,0.5327 19.422282,0.9424 22.290552,0.1639 2.86827,-0.7785 4.630207,-3.1141 5.203861,-3.1141 0.573654,0 1.802912,16.0623 1.761937,17.0867 -0.04098,1.0244 0.204876,4.5482 -0.163901,4.5482 -0.368778,0 -4.507281,0 -4.876059,0.3278 -0.368777,0.3278 0.204877,4.2615 0.204877,4.2615 z"
       style="fill:#ffffff;fill-rule:evenodd;stroke:none;stroke-width:1px;stroke-linecap:butt;stroke-linejoin:miter;stroke-opacity:1" />
    <path
       style="fill:#ffffff;fill-rule:evenodd;stroke:none;stroke-width:1px;stroke-linecap:butt;stroke-linejoin:miter;stroke-opacity:1"
       d="m 10.16187,50.1717 c 1.55706,-3.1141 2.745343,-5.6956 0.491703,-5.6136 -2.2536405,0.082 -2.8682698,-0.2049 -3.3599731,-0.2049 -0.4917034,0 -0.7785303,-1.1883 -0.7785303,-1.1883 L 4.8760583,31.1592 8.0311549,23.5787 c 0,0 -0.8195056,-2.1307 0.286827,-1.5161 1.1063326,0.6147 0.9834067,3.0322 4.6302071,3.5649 3.6468,0.5327 19.422282,0.9424 22.290552,0.1639 2.86827,-0.7785 4.630207,-3.1141 5.203861,-3.1141 0.573654,0 1.802912,16.0623 1.761937,17.0867 -0.04098,1.0244 0.204876,4.5482 -0.163901,4.5482 -0.368778,0 -4.507281,0 -4.876059,0.3278 -0.368777,0.3278 0.204877,4.2615 0.204877,4.2615 z"
       id="path4354"
       inkscape:connector-curvature="0"
       mask="url(#mask4308)" />
  </g>
</svg>
